<svg width="289" height="35" viewBox="0 0 289 35" fill="none" xmlns="http://www.w3.org/2000/svg">
<path d="M239 0.5H214.8L202.4 34.8H226.6L239 0.5Z" fill="black"/>
<path d="M234.6 16.5L248.9 34.8H276.8L260.8 16.7L288.6 0.5H260.2L234.6 16.5Z" fill="black"/>
<path d="M207.1 7.1L209.5 0.5H147.6L139.1 24.1C138.6 25.6 138.5 27.3 139.6 28.6C140 29 142.7 32.2 143.3 32.8C144.3 33.9 145.5 34.8 147.5 34.8H197.1L199.5 28.3H164.8C162.7 28.3 161.7 26.7 162.2 25.1L163.8 20.8H202.2L204.6 14.2H166.2L168.8 7.1H207.1Z" fill="black"/>
<path d="M136 0.5H74.4L62 34.8H85.6L95.6 7.1H113.2C115.1 7.1 115.8 8.5 115.4 9.8C115 11.2 114.4 12.9 113.9 13.9C113.3 15.3 111.9 16.4 109.8 16.4C107.7 16.4 93.3 16.4 93.3 16.4L107.6 34.7H134.7L122.5 21C122.5 21 127.4 21 129.8 21C133.2 21 135.2 19.2 136.1 16.9C137.1 14.3 139.4 8 140.1 5.9C141.4 2.6 139.4 0.5 136 0.5Z" fill="black"/>
<path d="M70.1 0.5H2.9L0.5 7.1H23.7L13.7 34.8H36.5L46.5 7.1H67.8L70.1 0.5Z" fill="black"/>
</svg>
