<?xml version="1.0" encoding="utf-8"?>
<!-- Generator: Adobe Illustrator 19.2.1, SVG Export Plug-In . SVG Version: 6.00 Build 0)  -->
<svg version="1.1" id="layer" xmlns="http://www.w3.org/2000/svg" xmlns:xlink="http://www.w3.org/1999/xlink" x="0px" y="0px"
	 viewBox="0 0 652 652" style="enable-background:new 0 0 652 652;" xml:space="preserve">
<style type="text/css">
	.st0{fill:#2A2D2C;}
	.st1{fill:#98BE42;}
</style>
<path class="st0" d="M253.9,373.3c-0.8-0.2-1.5-0.4-2.1-0.8c-0.6-0.4-1.1-0.9-1.4-1.6c-0.4-0.7-0.5-1.5-0.5-2.4c0-1,0.2-1.8,0.5-2.5
	c0.4-0.7,0.8-1.2,1.4-1.6c0.6-0.4,1.3-0.8,2-1c0.8-0.3,1.6-0.5,2.4-0.6c0.9-0.1,1.7-0.3,2.6-0.4c0.9-0.1,1.7-0.2,2.5-0.4
	c0.8-0.2,1.5-0.3,2.2-0.6c0.7-0.2,1.2-0.5,1.7-1v4c0,0.6-0.1,1.4-0.2,2.4c-0.1,1-0.5,2-1,3c-0.6,1-1.4,1.8-2.6,2.5
	c-1.2,0.7-2.8,1.1-4.9,1.1C255.5,373.5,254.7,373.4,253.9,373.3 M265.6,375.9c0,0.7,0.1,1.3,0.3,1.9c0.1,0.6,0.3,1.2,0.5,1.9h10.9
	c-0.5-0.8-0.9-2-1.1-3.6c-0.2-1.6-0.3-3.3-0.3-5.1v-20.4c0-2.4-0.5-4.3-1.6-5.7c-1.1-1.4-2.4-2.6-4.1-3.4c-1.7-0.8-3.5-1.4-5.5-1.6
	c-2-0.3-4-0.4-6-0.4c-2.2,0-4.3,0.2-6.5,0.7c-2.2,0.4-4.1,1.1-5.8,2.2c-1.7,1-3.1,2.3-4.3,4c-1.1,1.7-1.7,3.8-1.9,6.3H251
	c0.2-2.1,0.9-3.7,2.1-4.6c1.2-0.9,2.9-1.4,5-1.4c1,0,1.9,0.1,2.7,0.2c0.8,0.1,1.6,0.4,2.2,0.8c0.6,0.4,1.1,0.9,1.5,1.6
	c0.4,0.7,0.6,1.6,0.6,2.8c0,1.1-0.3,2-1,2.5c-0.7,0.6-1.7,1-2.9,1.3c-1.2,0.3-2.6,0.5-4.2,0.7c-1.6,0.2-3.2,0.4-4.8,0.6
	c-1.6,0.3-3.2,0.6-4.8,1c-1.6,0.4-3,1.1-4.3,1.9c-1.2,0.9-2.3,2-3,3.5c-0.8,1.4-1.2,3.3-1.2,5.5c0,2,0.3,3.8,1,5.2
	c0.7,1.5,1.6,2.7,2.8,3.6c1.2,1,2.6,1.7,4.3,2.1c1.6,0.5,3.4,0.7,5.2,0.7c2.4,0,4.8-0.4,7.1-1.1
	C261.8,378.9,263.9,377.6,265.6,375.9 M307.9,364.6c-0.3,1.5-0.8,2.9-1.5,4.1c-0.7,1.2-1.7,2.1-2.9,2.8c-1.2,0.7-2.7,1.1-4.4,1.1
	c-1.7,0-3.1-0.4-4.3-1.1c-1.2-0.7-2.2-1.7-3-2.9c-0.8-1.2-1.4-2.5-1.7-4.1c-0.4-1.5-0.5-3-0.5-4.6c0-1.6,0.2-3.2,0.5-4.7
	c0.3-1.5,0.9-2.8,1.6-4c0.7-1.2,1.7-2.1,2.9-2.8c1.2-0.7,2.7-1.1,4.5-1.1c1.8,0,3.2,0.4,4.4,1.1c1.2,0.7,2.1,1.6,2.8,2.8
	c0.7,1.1,1.3,2.4,1.6,3.9c0.3,1.5,0.5,3,0.5,4.7C308.3,361.6,308.2,363.1,307.9,364.6z M307.9,325.5v19.7h-0.2
	c-1.2-1.9-2.9-3.4-5-4.4c-2.1-1-4.3-1.5-6.6-1.5c-2.9,0-5.4,0.6-7.6,1.7c-2.2,1.1-4,2.6-5.4,4.5c-1.4,1.9-2.5,4-3.3,6.5
	c-0.7,2.4-1.1,5-1.1,7.6c0,2.7,0.4,5.4,1.1,7.9c0.7,2.5,1.8,4.8,3.3,6.7c1.4,1.9,3.3,3.5,5.5,4.6c2.2,1.1,4.8,1.7,7.7,1.7
	c2.6,0,4.9-0.5,6.9-1.4c2.1-0.9,3.7-2.5,5-4.6h0.1v5h10.2v-51.9C314.2,327.5,310.7,326.6,307.9,325.5L307.9,325.5z M339,367.2h-0.2
	l-8.3-26.8h-11.3l13.4,39.2h12l13.3-39.2h-10.7L339,367.2z M367.6,355.8c0-0.8,0.2-1.6,0.5-2.6c0.3-1,0.8-1.9,1.4-2.7
	c0.7-0.9,1.6-1.6,2.7-2.2c1.1-0.6,2.6-0.9,4.3-0.9c2.6,0,4.6,0.7,5.9,2.1c1.3,1.4,2.2,3.5,2.7,6.2H367.6z M395.1,353.9
	c-0.7-2.8-1.9-5.3-3.5-7.4c-1.6-2.2-3.6-3.9-6.1-5.2c-2.5-1.3-5.4-1.9-8.7-1.9c-3,0-5.7,0.5-8.2,1.6c-2.5,1.1-4.6,2.5-6.3,4.4
	c-1.8,1.8-3.1,4-4.1,6.6c-1,2.5-1.4,5.3-1.4,8.2c0,3,0.5,5.8,1.4,8.3c0.9,2.5,2.3,4.7,4,6.5c1.7,1.8,3.8,3.2,6.3,4.2
	c2.5,1,5.3,1.5,8.4,1.5c4.4,0,8.2-1,11.4-3c3.1-2,5.5-5.4,7-10.1h-9.5c-0.4,1.2-1.3,2.4-2.9,3.4c-1.6,1.1-3.4,1.6-5.6,1.6
	c-3,0-5.4-0.8-7-2.4c-1.6-1.6-2.5-4.1-2.7-7.6h28.3C396.1,359.6,395.8,356.7,395.1,353.9z M432.4,343.8c-1.1-1.4-2.5-2.5-4.4-3.3
	c-1.8-0.8-4.2-1.2-7.1-1.2c-2.3,0-4.5,0.5-6.7,1.6c-2.2,1-3.9,2.7-5.3,5h-0.2v-5.5h-10.2v39.2h10.8v-20.5c0-4,0.7-6.9,2-8.6
	c1.3-1.7,3.4-2.6,6.4-2.6c2.6,0,4.4,0.8,5.4,2.4c1,1.6,1.5,4,1.5,7.2v22.1h10.8v-24.1c0-2.4-0.2-4.6-0.6-6.6
	C434.2,346.9,433.4,345.2,432.4,343.8 M488.6,361c0,4-0.7,6.9-2,8.6c-1.3,1.7-3.4,2.6-6.4,2.6c-2.6,0-4.4-0.8-5.4-2.4
	c-1-1.6-1.5-4-1.5-7.2v-22.1h-9h-1.8h-9.3v-11.8h-10.8v11.8H436c0,0,2.3,3.8,2.7,7.2h3.9v23.1c0,2,0.3,3.6,1,4.8
	c0.7,1.2,1.6,2.2,2.7,2.8c1.1,0.6,2.5,1.1,3.9,1.3c1.5,0.2,3.1,0.3,4.7,0.3c1.1,0,2.2,0,3.3-0.1c1.1-0.1,2.1-0.1,3-0.3v-8.3
	c-0.5,0.1-1,0.2-1.6,0.2c-0.6,0.1-1.1,0.1-1.7,0.1c-1.8,0-3-0.3-3.6-0.9c-0.6-0.6-0.9-1.8-0.9-3.6v-19.4h9.3v16.9
	c0,2.4,0.2,4.6,0.6,6.6c0.4,2,1.2,3.7,2.2,5.1c1.1,1.4,2.5,2.5,4.4,3.2c1.8,0.8,4.2,1.1,7.1,1.1c2.3,0,4.5-0.5,6.7-1.5
	c2.2-1,3.9-2.7,5.3-4.9h0.2v5.5h10.2v-39.2h-10.8V361z M529.1,339.8c-0.9-0.2-1.6-0.4-2.4-0.4c-1.4,0-2.7,0.2-3.9,0.6
	c-1.3,0.4-2.5,1-3.6,1.7c-1.1,0.7-2.1,1.6-3,2.6c-0.9,1-1.5,2.2-2,3.4H514v-7.3h-10.2v39.2h10.8V362c0-1.8,0.2-3.4,0.5-4.9
	c0.4-1.5,1-2.8,1.8-4c0.8-1.1,1.9-2,3.3-2.7c1.3-0.6,2.9-1,4.8-1c0.8-1.7,2.2-4.1,4.1-6.3V339.8z M537,355.8c0-0.8,0.2-1.6,0.5-2.6
	c0.3-1,0.8-1.9,1.4-2.7c0.7-0.9,1.6-1.6,2.7-2.2c1.1-0.6,2.6-0.9,4.3-0.9c2.6,0,4.6,0.7,5.9,2.1c1.3,1.4,2.2,3.5,2.7,6.2H537z
	 M561.1,346.5c-1.6-2.2-3.6-3.9-6.1-5.2c-2.5-1.3-5.4-1.9-8.7-1.9c-3,0-5.7,0.5-8.2,1.6c-2,0.9-3.8,2.1-5.4,3.5
	c-0.3,0.3-0.6,0.6-0.9,0.9c-1.7,1.7-3,3.8-3.9,6.1c-0.1,0.1-0.1,0.3-0.2,0.4c-1,2.5-1.4,5.3-1.4,8.2c0,3,0.5,5.8,1.4,8.3
	c0.9,2.5,2.3,4.7,4,6.5c1.7,1.8,3.8,3.2,6.3,4.2c2.5,1,5.3,1.5,8.4,1.5c4.4,0,8.2-1,11.4-3c3.1-2,5.5-5.4,7-10.1h-9.5
	c-0.4,1.2-1.3,2.4-2.9,3.4c-1.6,1.1-3.4,1.6-5.6,1.6c-3,0-5.4-0.8-7-2.4c-1.6-1.6-2.5-4.1-2.7-7.6h28.3c0.2-3,0-5.9-0.8-8.7
	C563.9,351.2,562.7,348.7,561.1,346.5z M598.5,359.4c-1.2-0.8-2.5-1.5-4-2c-1.5-0.5-3-0.9-4.6-1.3c-1.5-0.4-3-0.7-4.5-1
	c-1.5-0.3-2.8-0.6-3.9-1c-1.1-0.4-2.1-0.9-2.8-1.5c-0.7-0.6-1.1-1.4-1.1-2.4c0-0.8,0.2-1.4,0.6-1.9c0.4-0.5,0.9-0.8,1.5-1.1
	c0.6-0.2,1.2-0.4,1.9-0.5c0.7-0.1,1.4-0.1,2-0.1c1.9,0,3.6,0.4,5,1.1c1.4,0.7,2.2,2.1,2.4,4.2h10.2c-0.2-2.4-0.8-4.4-1.9-6
	c-1-1.6-2.3-2.9-3.9-3.8c-1.6-1-3.3-1.6-5.3-2c-2-0.4-4.1-0.6-6.2-0.6c-2.1,0-4.2,0.2-6.2,0.6c-2,0.4-3.8,1-5.5,2
	c-1.6,0.9-2.9,2.2-3.9,3.8c-1,1.6-1.5,3.7-1.5,6.2c0,1.7,0.3,3.2,1.1,4.4c0.7,1.2,1.6,2.2,2.8,3c1.2,0.8,2.5,1.4,4,1.9
	c1.5,0.5,3,0.9,4.6,1.3c3.8,0.8,6.8,1.6,9,2.4c2.1,0.8,3.2,2,3.2,3.6c0,1-0.2,1.8-0.7,2.4c-0.5,0.6-1,1.1-1.7,1.5
	c-0.7,0.4-1.4,0.7-2.3,0.8c-0.8,0.2-1.6,0.3-2.4,0.3c-1.1,0-2.1-0.1-3.1-0.4c-1-0.3-1.9-0.6-2.6-1.2c-0.8-0.5-1.4-1.2-1.9-2
	c-0.5-0.8-0.7-1.8-0.7-3H566c0.1,2.6,0.7,4.8,1.8,6.6c1.1,1.7,2.5,3.2,4.2,4.2c1.7,1.1,3.6,1.8,5.8,2.3c2.2,0.5,4.4,0.7,6.7,0.7
	c2.2,0,4.4-0.2,6.6-0.6c2.1-0.4,4.1-1.2,5.7-2.2c1.7-1.1,3-2.5,4.1-4.2c1-1.8,1.6-3.9,1.6-6.5c0-1.8-0.4-3.3-1.1-4.6
	C600.6,361.2,599.7,360.2,598.5,359.4 M448.6,295.4c0.4-1.5,0.9-2.9,1.7-4c0.8-1.2,1.7-2.1,2.9-2.8c1.2-0.7,2.5-1,4.1-1
	c1.6,0,3,0.3,4.1,1c1.1,0.7,2.1,1.6,2.8,2.8c0.8,1.2,1.3,2.5,1.7,4c0.3,1.5,0.5,3.1,0.5,4.8c0,1.6-0.2,3.2-0.5,4.7
	c-0.4,1.5-0.9,2.9-1.7,4c-0.8,1.2-1.7,2.1-2.8,2.8c-1.1,0.7-2.5,1-4.1,1c-1.6,0-2.9-0.3-4.1-1c-1.2-0.7-2.1-1.6-2.9-2.8
	c-0.8-1.2-1.3-2.5-1.7-4c-0.4-1.5-0.5-3.1-0.5-4.7C448.1,298.5,448.3,296.9,448.6,295.4z M448,314.7h0.1c1.2,2.2,2.9,3.7,5.2,4.6
	c2.3,0.9,4.9,1.4,7.7,1.4c2,0,3.9-0.4,5.8-1.2c1.9-0.8,3.7-2,5.2-3.7c1.5-1.7,2.8-3.8,3.8-6.4c1-2.6,1.4-5.7,1.4-9.3
	c0-3.6-0.5-6.7-1.4-9.3c-1-2.6-2.2-4.7-3.8-6.4c-1.5-1.7-3.3-2.9-5.2-3.7c-1.9-0.8-3.9-1.2-5.8-1.2c-2.4,0-4.8,0.5-7,1.4
	c-2.3,0.9-4,2.4-5.4,4.4h-0.2v-19.7h-10.8v54.1H448V314.7z M489.7,293.4c0.3-1,0.8-1.9,1.4-2.7c0.7-0.9,1.6-1.6,2.7-2.2
	c1.1-0.6,2.6-0.9,4.3-0.9c2.6,0,4.6,0.7,5.9,2.1c1.3,1.4,2.2,3.5,2.7,6.2h-17.5C489.2,295.2,489.4,294.3,489.7,293.4 M483.8,315
	c1.7,1.8,3.8,3.2,6.3,4.2c2.5,1,5.3,1.5,8.3,1.5c4.5,0,8.2-1,11.4-3c3.1-2,5.5-5.4,7-10.1h-9.5c-0.4,1.2-1.3,2.4-2.9,3.4
	c-1.6,1.1-3.4,1.6-5.6,1.6c-3,0-5.4-0.8-7-2.3c-1.6-1.6-2.5-4.1-2.7-7.6h28.3c0.2-3,0-5.9-0.8-8.7c-0.7-2.8-1.9-5.3-3.4-7.4
	c-1.6-2.2-3.6-3.9-6.1-5.2c-2.5-1.3-5.4-1.9-8.7-1.9c-3,0-5.7,0.5-8.2,1.6c-2.5,1.1-4.6,2.5-6.3,4.4c-1.8,1.9-3.1,4-4.1,6.6
	c-1,2.5-1.4,5.3-1.4,8.2c0,3,0.5,5.8,1.4,8.3C480.7,311.1,482.1,313.2,483.8,315 M522.9,287.7v23.1c0,2,0.3,3.6,1,4.8
	c0.7,1.2,1.6,2.2,2.7,2.8c1.1,0.7,2.5,1.1,3.9,1.3c1.5,0.2,3.1,0.3,4.7,0.3c1.1,0,2.1,0,3.3-0.1c1.1-0.1,2.1-0.2,3-0.3v-8.3
	c-0.5,0.1-1,0.2-1.6,0.2c-0.6,0-1.1,0.1-1.7,0.1c-1.8,0-3-0.3-3.6-0.9c-0.6-0.6-0.9-1.8-0.9-3.6v-19.4h5.6h2.3h4.3v23.1
	c0,2,0.3,3.6,1,4.8c0.7,1.2,1.6,2.2,2.7,2.8c1.1,0.7,2.4,1.1,3.9,1.3c1.5,0.2,3.1,0.3,4.7,0.3c1.1,0,2.1,0,3.3-0.1
	c1.1-0.1,2.1-0.2,3-0.3v-8.3c-0.5,0.1-1,0.2-1.6,0.2c-0.6,0-1.1,0.1-1.7,0.1c-1.8,0-3-0.3-3.6-0.9c-0.6-0.6-0.9-1.8-0.9-3.6v-19.4
	h7.9v-7.2h-7.9v-11.7h-10.8v11.7h-4.3h-2.3h-5.6v-11.7h-10.8v11.7h-6.5v0.3c1.1,1.5,2.9,4.1,3.9,6.9H522.9z M574.8,295.9
	c0.1-0.8,0.2-1.6,0.5-2.6c0.3-1,0.8-1.9,1.4-2.7c0.7-0.9,1.6-1.6,2.7-2.2c1.1-0.6,2.6-0.9,4.3-0.9c2.6,0,4.6,0.7,5.9,2.1
	c1.3,1.4,2.2,3.5,2.7,6.2H574.8z M598.9,286.6c-1.6-2.2-3.6-3.9-6.1-5.2c-2.5-1.3-5.4-1.9-8.7-1.9c-3,0-5.7,0.5-8.2,1.6
	c-2.5,1.1-4.6,2.5-6.3,4.4c-1.8,1.9-3.1,4-4.1,6.6c-1,2.5-1.4,5.3-1.4,8.2c0,3,0.5,5.8,1.4,8.3c0.9,2.5,2.3,4.7,4,6.5
	c1.7,1.8,3.8,3.2,6.3,4.2c2.5,1,5.3,1.5,8.3,1.5c4.5,0,8.2-1,11.4-3c3.1-2,5.5-5.4,7-10.1h-9.5c-0.4,1.2-1.3,2.4-2.9,3.4
	c-1.6,1.1-3.4,1.6-5.6,1.6c-3,0-5.4-0.8-7-2.3c-1.6-1.6-2.5-4.1-2.7-7.6h28.3c0.2-3-0.1-5.9-0.8-8.7
	C601.6,291.3,600.5,288.8,598.9,286.6z M628.6,279.5c-1.4,0-2.7,0.2-3.9,0.6c-1.3,0.4-2.5,1-3.6,1.7c-1.1,0.7-2.1,1.6-3,2.7
	c-0.9,1-1.5,2.2-2,3.4h-0.2v-7.3h-10.2v39.2h10.8v-17.7c0-1.8,0.2-3.4,0.5-4.9c0.4-1.5,0.9-2.8,1.8-4c0.8-1.1,1.9-2,3.3-2.7
	c1.4-0.7,3-1,5-1c0.7,0,1.3,0,2.1,0.1c0.7,0.1,1.3,0.2,1.8,0.3v-10C630.1,279.6,629.3,279.5,628.6,279.5 M251.8,297
	c0-1.9,0.3-3.5,0.8-4.7c0.6-1.2,1.2-2.1,2-2.7c0.8-0.6,1.6-1.1,2.4-1.3c0.8-0.2,1.5-0.3,2-0.3c1.7,0,3,0.3,3.9,0.9
	c0.9,0.6,1.5,1.4,1.9,2.3c0.4,1,0.6,2,0.6,3.1c0.1,1.1,0.1,2.3,0.1,3.4v22h10.8v-21.8c0-1.2,0.1-2.4,0.3-3.6
	c0.2-1.2,0.5-2.2,1.1-3.2c0.5-0.9,1.3-1.7,2.2-2.3c0.9-0.6,2.2-0.9,3.7-0.9c1.5,0,2.7,0.3,3.6,0.8c0.9,0.5,1.6,1.2,2,2
	c0.5,0.9,0.7,1.9,0.8,3c0.1,1.2,0.2,2.4,0.2,3.7v22.2h10.3h0.5v-0.3v-25.9c0-2.5-0.4-4.7-1.1-6.5c-0.7-1.8-1.7-3.2-3-4.4
	c-1.3-1.1-2.8-1.9-4.6-2.4c-1.8-0.5-3.7-0.8-5.8-0.8c-2.7,0-5.1,0.7-7.1,2c-2,1.3-3.6,2.8-4.7,4.6c-1.1-2.4-2.6-4.1-4.7-5.1
	c-2-1-4.3-1.4-6.8-1.4c-2.6,0-4.9,0.6-6.9,1.7c-2,1.1-3.7,2.7-5.1,4.7h-0.2v-5.3H241v39.2h10.8V297z M320,320.7
	c2.3,0,4.5-0.5,6.7-1.5c2.2-1,3.9-2.7,5.3-4.9h0.2v5.5h10.2v-39.2h-10.8v20.5c0,4-0.7,6.9-2,8.6c-1.3,1.7-3.4,2.6-6.4,2.6
	c-2.6,0-4.4-0.8-5.4-2.4c-1-1.6-1.5-4-1.5-7.2v-22.1h-10.8v24.1c0,2.4,0.2,4.6,0.6,6.6c0.4,2,1.2,3.7,2.2,5.1
	c1.1,1.4,2.5,2.5,4.4,3.2c0.6,0.2,1.2,0.4,1.9,0.6c1.3,0.3,2.9,0.5,4.6,0.5C319.6,320.7,319.8,320.7,320,320.7 M351.1,315.1
	c1.7,1.8,3.8,3.2,6.3,4.1c2.5,1,5.1,1.5,8.1,1.5c5.2,0,9.5-1.4,12.8-4.1c3.3-2.7,5.4-6.7,6.1-11.9H374c-0.4,2.4-1.2,4.4-2.6,5.8
	c-1.4,1.4-3.4,2.2-6,2.2c-1.7,0-3.1-0.4-4.3-1.1c-1.2-0.8-2.1-1.7-2.8-2.9c-0.7-1.2-1.2-2.5-1.5-4c-0.3-1.5-0.5-2.9-0.5-4.3
	c0-1.5,0.1-2.9,0.5-4.4c0.3-1.5,0.8-2.9,1.6-4.1c0.7-1.2,1.7-2.3,2.8-3c1.2-0.8,2.6-1.2,4.3-1.2c4.6,0,7.3,2.2,8,6.7h10.6
	c-0.2-2.5-0.8-4.7-1.8-6.6c-1.1-1.9-2.4-3.4-4.1-4.6c-1.7-1.2-3.6-2.2-5.8-2.8c-2.2-0.6-4.4-0.9-6.7-0.9c-3.2,0-6,0.5-8.5,1.6
	c-2.5,1.1-4.6,2.5-6.3,4.4c-1.7,1.9-3,4.1-3.9,6.7c-0.9,2.6-1.3,5.4-1.3,8.5c0,2.9,0.5,5.6,1.4,8.1
	C348,311.2,349.4,313.3,351.1,315.1 M405.8,288c2.6,0,4.4,0.8,5.4,2.4c1,1.6,1.5,4,1.5,7.2v22.1h10.8v-24.1c0-2.4-0.2-4.6-0.6-6.6
	c-0.4-2-1.2-3.7-2.2-5.1c-1.1-1.4-2.5-2.5-4.4-3.3c-1.8-0.8-4.2-1.2-7.1-1.2c-2,0-4.1,0.5-6.2,1.6c-2.1,1-3.9,2.7-5.2,5h-0.2v-20.4
	h-10.8v54.1h10.8v-20.6c0-4,0.7-6.9,2-8.6C400.7,288.8,402.8,288,405.8,288 M111.7,383c-6.4-0.5-12.7-4.6-14.7-10.2
	c-4.4-12,3.5-25.1,14.8-29.7c6.7-2.8,14.2-1.3,21-3.9c7.7-3,12.3-10.3,12.3-18.1c0-10.6-8.3-19.2-18.6-19.2c-2.8,0-5.5,0.7-7.8,1.8
	c-2,0.7-3.8,1.8-5.4,3.2c-2.8,2.4-5.1,5.7-7,9.5c-0.8,1.6-1.6,3.2-2.4,4.8c-3.6,7.5-7.2,15-10.9,22.4c-4.1,8.3-7.5,16.9-12.9,24.4
	c-6.8,9.3-17.6,15.1-29.2,15.2l-2.5,0C19.8,383.3,34.9,359,34.9,359l36.4-66.6c5.3-11.7,17.7-19.7,30.6-17c9.7,2,16.1,8.5,20.4,17.2
	c0,0,3.7,7.5,3.7,7.5l4.3-7.7c4-8.7,12-18.1,25.2-18.1c13.5,0,20.8,8.2,25.8,18.3c0,0,5.2,10.5,5.2,10.5
	c-1.9-0.5-10.8-1.5-21.6,17.1l-22.4,45C142.6,365.3,134.9,384.8,111.7,383"/>
<path id="Fill-42" class="st1" d="M202.3,363.5c0,0,6.1,1.7,8.8,6c0,0-1.3,14.1-25.5,13.8c-24.2-0.3-26.4-15-26.4-15
	s4.1-6.8,10.8-6.4c0,0-4-4.8-3.3-9.1c0,0,4.6-3.8,8.3-3.5c0,0-2.1-2.6-2.4-6.3c0,0,1.8-3.2,6.9-4c0,0,0.6-5.9,6.7-9.8
	c0,0,6.9,2.4,5.9,10.1c0,0,6.7,1.7,7.9,3.7c0,0-0.5,3.5-3.6,6.7c0,0,9.2,2.4,11.2,4.9C207.5,354.6,207.6,361.4,202.3,363.5"/>
</svg>
